# xmcd CD database file
#
# Track frame offsets:
#	150
#	19717
#	34645
#	54880
#	78487
#	92267
#	110652
#	129737
#	143887
#	161297
#	175280
#	194920
#	207172
#
# Disc length: 2920 seconds
#
# Revision: 1
# Processed by: cddbd v1.5.1PL0 Copyright (c) Steve Scherf et al.
# Submitted via: CDex 1.51
#
DISCID=aa0b660d
DTITLE=Bob Snyder - Amazing Grace
DYEAR=1995
DGENRE=Jazz
TTITLE0=Amazing Grace
TTITLE1=In The Garden
TTITLE2=Down By The River
TTITLE3=Ava Maria
TTITLE4=The Lord's Prayer
TTITLE5=What a Friend We Have In Jesus
TTITLE6=How Great Thou Art
TTITLE7=Abide With Me
TTITLE8=What a Wonderful World
TTITLE9=Do Lord
TTITLE10=Just a Closer Walk With Thee
TTITLE11=When the Saints Go Marching In
TTITLE12=America The Beautiful
EXTD=YEAR: 1995
EXTT0=
EXTT1=
EXTT2=
EXTT3=
EXTT4=
EXTT5=
EXTT6=
EXTT7=
EXTT8=
EXTT9=
EXTT10=
EXTT11=
EXTT12=
PLAYORDER=
